<svg width="16" height="16" viewBox="0 0 16 16" fill="none" xmlns="http://www.w3.org/2000/svg">
<g id="vuesax/linear/call">
<g id="vuesax/linear/call_2">
<g id="call">
<g id="call_2">
<path id="Vector" d="M13.9557 11.833C13.9557 12.051 13.9073 12.275 13.8043 12.493C13.7014 12.711 13.5682 12.9169 13.3926 13.1107C13.0959 13.4377 12.7689 13.6738 12.3995 13.8252C12.0362 13.9766 11.6426 14.0553 11.2187 14.0553C10.6011 14.0553 9.94105 13.91 9.24469 13.6133C8.54833 13.3166 7.85197 12.9169 7.16167 12.4143C6.46531 11.9057 5.80528 11.3425 5.17553 10.7188C4.55183 10.0891 3.98869 9.42905 3.4861 8.73875C2.98957 8.04844 2.58992 7.35814 2.29926 6.67389C2.00861 5.98359 1.86328 5.32356 1.86328 4.69381C1.86328 4.28205 1.93594 3.88845 2.08127 3.52514C2.2266 3.15576 2.4567 2.81667 2.77763 2.5139C3.16517 2.13242 3.58904 1.9447 4.03713 1.9447C4.20668 1.9447 4.37623 1.98104 4.52761 2.0537C4.68505 2.12636 4.82432 2.23536 4.93332 2.3928L6.33815 4.37288C6.44714 4.52426 6.52586 4.66353 6.58036 4.79675C6.63485 4.92391 6.66513 5.05107 6.66513 5.16612C6.66513 5.31145 6.62274 5.45678 6.53797 5.59605C6.45925 5.73532 6.3442 5.88065 6.19887 6.02597L5.73867 6.50434C5.67206 6.57095 5.64179 6.64967 5.64179 6.74655C5.64179 6.795 5.64784 6.83738 5.65995 6.88583C5.67812 6.93427 5.69628 6.9706 5.70839 7.00693C5.81739 7.20676 6.0051 7.46713 6.27154 7.78201C6.54402 8.09689 6.83468 8.41782 7.14955 8.73875C7.47654 9.05968 7.79142 9.35639 8.11235 9.62887C8.42722 9.89531 8.6876 10.077 8.89348 10.186C8.92376 10.1981 8.96009 10.2162 9.00248 10.2344C9.05092 10.2526 9.09936 10.2586 9.15386 10.2586C9.2568 10.2586 9.33552 10.2223 9.40212 10.1557L9.86233 9.70154C10.0137 9.55016 10.159 9.43511 10.2983 9.36244C10.4376 9.27767 10.5769 9.23528 10.7282 9.23528C10.8433 9.23528 10.9644 9.2595 11.0976 9.314C11.2308 9.3685 11.3701 9.44722 11.5215 9.55016L13.5258 10.9732C13.6832 11.0821 13.7922 11.2093 13.8588 11.3607C13.9194 11.5121 13.9557 11.6635 13.9557 11.833Z"  stroke-width="0.908294" stroke-miterlimit="10"/>
</g>
</g>
</g>
</g>
</svg>
