<svg width="131" height="131" viewBox="0 0 131 131" fill="none" xmlns="http://www.w3.org/2000/svg">
<path d="M127.741 39.7324C131.168 43.3948 130.086 49.3171 125.426 51.17C113.25 56.0104 101.414 56.959 89.9399 53.4975C88.6285 53.1019 87.9109 51.7174 88.273 50.3965L96.2967 21.131C96.7095 19.6254 98.3444 18.812 99.7783 19.4293C111.263 24.3735 118.626 29.9903 127.741 39.7324Z" fill="#CCCCCC"/>
<path d="M2.73835 39.7324C-0.688472 43.3948 0.39321 49.3171 5.05397 51.17C17.2293 56.0104 29.0657 56.959 40.5398 53.4975C41.8511 53.1019 42.5687 51.7174 42.2066 50.3965L34.1829 21.131C33.7701 19.6254 32.1353 18.812 30.7013 19.4293C19.2168 24.3735 11.8539 29.9903 2.73835 39.7324Z" fill="#CCCCCC"/>
<path d="M124.546 1.22646C112.955 7.03131 95.2074 7.18325 86.5612 6.85101C84.4303 6.76913 82.9777 9.11452 84.0552 10.9548L97.069 33.1805C97.5408 33.9862 98.4108 34.4913 99.342 34.4221C122.955 32.6666 140.027 -6.52669 124.546 1.22646Z" fill="#727272"/>
<path d="M5.93345 1.22646C17.5243 7.03131 35.2721 7.18325 43.9183 6.85101C46.0493 6.76913 47.5019 9.11452 46.4244 10.9548L33.4106 33.1805C32.9388 33.9862 32.0687 34.4913 31.1376 34.4221C7.5249 32.6666 -9.5477 -6.52669 5.93345 1.22646Z" fill="#727272"/>
<path d="M34.3917 92.8393C24.7779 92.8393 16.9844 85.0457 16.9844 75.4319V48.381C16.9844 21.6609 38.6453 -1.52588e-05 65.3654 -1.52588e-05C92.0855 -1.52588e-05 113.746 21.6609 113.746 48.381V75.4319C113.746 85.0457 105.953 92.8393 96.3391 92.8393H91.5946C92.398 97.5731 92.8249 101.693 92.8249 104.608C92.8249 119.051 81.1163 130.76 66.673 130.76H64.0578C49.6145 130.76 37.9059 119.051 37.9059 104.608C37.9059 101.693 38.3328 97.5731 39.1362 92.8393H34.3917Z" fill="#E5E5E5"/>
<path d="M94.1325 39.2278C94.1325 43.5608 90.6199 47.0734 86.2869 47.0734C81.9539 47.0734 78.4414 43.5608 78.4414 39.2278C78.4414 34.8948 81.9539 31.3823 86.2869 31.3823C90.6199 31.3823 94.1325 34.8948 94.1325 39.2278Z" fill="black"/>
<path d="M52.2894 39.2278C52.2894 43.5608 48.7769 47.0734 44.4439 47.0734C40.1109 47.0734 36.5983 43.5608 36.5983 39.2278C36.5983 34.8948 40.1109 31.3823 44.4439 31.3823C48.7769 31.3823 52.2894 34.8948 52.2894 39.2278Z" fill="black"/>
<path fill-rule="evenodd" clip-rule="evenodd" d="M92.5758 62.7646C109.186 62.7646 122.651 76.2295 122.651 92.8393C122.651 109.449 109.186 122.914 92.5759 122.914C83.0495 122.914 74.1694 119.941 67.755 112.564C66.5259 111.15 64.2049 111.15 62.9758 112.564C56.5614 119.941 47.6813 122.914 38.155 122.914C21.5452 122.914 8.08026 109.449 8.08026 92.8393C8.08026 76.2917 21.4443 62.8656 37.9682 62.7651L92.5758 62.7646Z" fill="#FF8787"/>
<path d="M47.0591 93.4931C47.0591 98.9093 42.6683 103.3 37.2521 103.3C31.8359 103.3 27.4451 98.9093 27.4451 93.4931C27.4451 88.0768 31.8359 83.6861 37.2521 83.6861C42.6683 83.6861 47.0591 88.0768 47.0591 93.4931Z" fill="#CE3B3B"/>
<path d="M104.593 93.4931C104.593 98.9093 100.203 103.3 94.7863 103.3C89.3701 103.3 84.9793 98.9093 84.9793 93.4931C84.9793 88.0768 89.3701 83.6861 94.7863 83.6861C100.203 83.6861 104.593 88.0768 104.593 93.4931Z" fill="#CE3B3B"/>
</svg>
