<svg width="66" height="34" viewBox="0 0 66 34" fill="none" xmlns="http://www.w3.org/2000/svg">
<g id="Group 143">
<g id="Group 144">
<g id="Group">
<path id="Vector" d="M15.3668 0.974602C17.9707 0.974602 19.2521 2.17035 20.0196 4.00514L30.6907 29.959H25.0562L22.6236 23.7695H8.02432L5.59166 29.959H0L10.6727 4.04796C11.4403 2.17035 12.72 0.974602 15.3668 0.974602ZM21.0441 19.7573L15.9647 6.78038C15.7505 6.31098 15.4952 6.22533 15.3668 6.22533C15.1955 6.22533 14.9402 6.31098 14.7261 6.78038L9.60382 19.7573H21.0441Z" fill="white"/>
<path id="Vector_2" d="M59.7656 10.5783C59.7656 17.1105 56.3052 20.3123 49.2971 20.3123H38.7841V29.9589H33.7656V0.974512H49.2971C56.3052 0.974512 59.7656 4.17634 59.7656 10.5783ZM49.0369 16.2886C52.6274 16.2886 54.4441 14.3846 54.4441 10.5783C54.4441 6.90053 52.6274 5.04103 49.0369 5.04103H38.7841V16.2886H49.0369Z" fill="white"/>
</g>
<path id="Vector_3" d="M53.3281 26.6893C58.2742 25.9218 58.8967 25.2975 59.6642 20.3532C60.4318 25.2992 61.056 25.9218 66.0004 26.6893C61.0543 27.4568 60.4318 28.081 59.6642 33.0254C58.8967 28.0794 58.2742 27.4568 53.3281 26.6893Z" fill="white"/>
</g>
</g>
</svg>
