<svg width="190" height="38" viewBox="0 0 190 38" fill="none" xmlns="http://www.w3.org/2000/svg">
<g id="&#208;&#155;&#208;&#190;&#208;&#179;&#208;&#190;">
<g id="Group 144">
<g id="Group">
<path id="Vector" d="M17.9122 0.320436C20.9475 0.320436 22.4411 1.71425 23.3357 3.85296L35.7744 34.1059H29.2066L26.371 26.8911H9.3535L6.51788 34.1059H0L12.4406 3.90287C13.3353 1.71425 14.827 0.320436 17.9122 0.320436ZM24.5299 22.2144L18.6091 7.0879C18.3595 6.54074 18.0619 6.44091 17.9122 6.44091C17.7125 6.44091 17.4149 6.54074 17.1654 7.0879L11.1946 22.2144H24.5299Z" fill="white"/>
<path id="Vector_2" d="M69.6622 11.5148C69.6622 19.1289 65.6286 22.8611 57.4596 22.8611H45.2052V34.1056H39.3555V0.320141H57.4596C65.6286 0.320141 69.6622 4.05233 69.6622 11.5148ZM57.1563 18.1709C61.3416 18.1709 63.4591 15.9515 63.4591 11.5148C63.4591 7.22776 61.3416 5.06024 57.1563 5.06024H45.2052V18.1709H57.1563Z" fill="white"/>
</g>
<path id="star" d="M62.1602 30.2942C67.9255 29.3996 68.6512 28.6719 69.5458 22.9086C70.4405 28.6739 71.1681 29.3996 76.9315 30.2942C71.1662 31.1888 70.4405 31.9165 69.5458 37.6799C68.6512 31.9146 67.9255 31.1888 62.1602 30.2942Z"/>
</g>
<g id="Group_2">
<path id="Vector_4" d="M84.3945 6.67632H93.6482V8.78623H86.7252V13.2038H93.2086V15.2484H86.7252V19.9521H93.869V22.062H84.3945V6.67632Z" fill="white"/>
<path id="Vector_5" d="M98.8579 21.7413C98.2569 21.4418 97.752 21.0348 97.3412 20.5222C96.9303 20.0096 96.6155 19.4279 96.3966 18.7751C96.1778 18.1224 96.0664 17.4312 96.0664 16.6978V16.5001C96.0664 15.7091 96.1912 14.9508 96.4408 14.2251C96.6904 13.4994 97.0628 12.8582 97.562 12.3014C98.0592 11.7446 98.6908 11.2973 99.453 10.9614C100.215 10.6254 101.102 10.4564 102.112 10.4564H102.221C102.705 10.4564 103.181 10.5044 103.65 10.5985C104.118 10.6945 104.602 10.8519 105.101 11.0708V6.23469H107.276V22.06H105.562C105.489 21.8258 105.412 21.5224 105.332 21.1481C105.251 20.7737 105.211 20.455 105.211 20.192V19.9501C104.976 20.3014 104.715 20.6124 104.431 20.885C104.145 21.1557 103.826 21.3938 103.475 21.5992C103.124 21.8046 102.753 21.9544 102.365 22.0504C101.978 22.1464 101.549 22.1925 101.079 22.1925H100.991C100.169 22.1925 99.4588 22.0427 98.8579 21.7413ZM101.517 20.2361C102.001 20.2361 102.461 20.144 102.901 19.9616C103.341 19.7792 103.721 19.5047 104.043 19.138C104.366 18.7713 104.625 18.3355 104.823 17.8306C105.021 17.3256 105.118 16.765 105.118 16.1488V13.2479C104.736 12.9407 104.312 12.7103 103.844 12.5548C103.375 12.4012 102.907 12.3244 102.436 12.3244H102.327C101.638 12.3244 101.041 12.4416 100.536 12.6758C100.031 12.91 99.6162 13.2172 99.2937 13.5992C98.9711 13.9813 98.7292 14.4132 98.568 14.8951C98.4067 15.3789 98.3261 15.8992 98.3261 16.4559V16.5654C98.3261 17.1663 98.4105 17.7019 98.5795 18.1704C98.7484 18.6388 98.975 19.0247 99.261 19.3242C99.5471 19.6256 99.8773 19.8522 100.25 20.0058C100.624 20.1593 101 20.2361 101.382 20.2361H101.517Z" fill="white"/>
<path id="Vector_6" d="M111.713 21.1476C111.023 20.4085 110.68 19.341 110.68 17.9492V10.6307H112.855V17.5095C112.855 18.4042 113.049 19.0857 113.437 19.5541C113.824 20.0226 114.45 20.2568 115.316 20.2568H115.381C115.865 20.2568 116.316 20.18 116.733 20.0264C117.15 19.8728 117.509 19.6501 117.81 19.3564C118.109 19.0627 118.342 18.7113 118.503 18.3005C118.664 17.8896 118.745 17.4212 118.745 16.8932V10.6288H120.899V22.0576H119.208C119.119 21.8522 119.046 21.5892 118.987 21.2666C118.927 20.9441 118.891 20.6581 118.877 20.4104C118.38 20.9959 117.781 21.4509 117.086 21.7735C116.391 22.096 115.631 22.2573 114.811 22.2573H114.746C113.412 22.2573 112.402 21.8887 111.713 21.1476Z" fill="white"/>
<path id="Vector_7" d="M127.25 21.8087C126.532 21.538 125.923 21.1463 125.426 20.6337C124.927 20.1211 124.539 19.5125 124.26 18.8099C123.982 18.1072 123.844 17.322 123.844 16.458V16.2392C123.844 15.3753 123.982 14.59 124.26 13.8874C124.539 13.1847 124.93 12.58 125.435 12.075C125.94 11.5701 126.541 11.1785 127.238 10.9001C127.933 10.6217 128.707 10.4816 129.557 10.4816H129.69C130.803 10.4816 131.775 10.7273 132.602 11.2169C133.43 11.7083 134.071 12.363 134.526 13.1847L132.811 14.2829C132.504 13.682 132.086 13.2097 131.558 12.866C131.03 12.5224 130.392 12.3496 129.646 12.3496H129.624C129.068 12.3496 128.572 12.4417 128.14 12.6241C127.708 12.8084 127.338 13.0676 127.031 13.4036C126.724 13.7415 126.495 14.1504 126.349 14.6342C126.203 15.118 126.13 15.6671 126.13 16.2833V16.4158C126.13 17.0321 126.219 17.5773 126.393 18.0534C126.57 18.5296 126.81 18.9366 127.119 19.2725C127.426 19.6104 127.808 19.8696 128.261 20.052C128.716 20.2363 129.214 20.3265 129.757 20.3265H129.778C130.569 20.3265 131.222 20.148 131.734 19.789C132.247 19.43 132.65 18.9865 132.944 18.4585L134.593 19.5797C134.094 20.3861 133.439 21.0273 132.625 21.5034C131.811 21.9795 130.842 22.2176 129.713 22.2176H129.559C128.737 22.2157 127.968 22.0794 127.25 21.8087Z" fill="white"/>
<path id="Vector_8" d="M139.097 21.7411C138.496 21.4416 137.984 21.0385 137.56 20.5316C137.135 20.0267 136.813 19.4411 136.592 18.773C136.371 18.1069 136.262 17.4138 136.262 16.6958V16.475C136.262 15.6994 136.394 14.9449 136.657 14.2115C136.92 13.4781 137.302 12.835 137.8 12.2782C138.297 11.7214 138.928 11.278 139.691 10.9477C140.453 10.6175 141.34 10.4524 142.35 10.4524H142.482C142.906 10.4524 143.336 10.4851 143.768 10.5523C144.2 10.6175 144.623 10.7327 145.032 10.8921C145.442 11.0533 145.851 11.2396 146.262 11.4527C146.673 11.6658 147.076 11.9173 147.472 12.211V22.0579H145.757C145.669 21.8237 145.588 21.5223 145.515 21.1575C145.442 20.7908 145.406 20.4759 145.406 20.2129V19.971C145.201 20.3089 144.955 20.6123 144.671 20.8829C144.385 21.1536 144.07 21.3917 143.726 21.5971C143.382 21.8026 143.008 21.9523 142.605 22.0483C142.202 22.1443 141.774 22.1904 141.319 22.1904H141.209C140.401 22.1923 139.698 22.0425 139.097 21.7411ZM141.712 20.236C142.209 20.236 142.68 20.1438 143.119 19.9614C143.559 19.779 143.939 19.5045 144.262 19.1378C144.584 18.7711 144.84 18.3353 145.032 17.8304C145.222 17.3255 145.318 16.7649 145.318 16.1486V13.2477C144.936 12.9252 144.511 12.691 144.043 12.5451C143.574 12.3992 143.104 12.3243 142.636 12.3243H142.547C141.858 12.3243 141.261 12.4414 140.756 12.6756C140.251 12.9098 139.836 13.2132 139.514 13.5875C139.191 13.9619 138.946 14.3939 138.779 14.8834C138.61 15.3749 138.525 15.899 138.525 16.4558V16.5652C138.525 17.1661 138.614 17.7018 138.788 18.1702C138.965 18.6387 139.195 19.0245 139.481 19.324C139.767 19.6255 140.094 19.852 140.459 20.0056C140.825 20.1592 141.198 20.236 141.58 20.236H141.712Z" fill="white"/>
<path id="Vector_9" d="M153.064 21.9294C152.632 21.7835 152.277 21.5627 151.999 21.2709C151.72 20.9772 151.503 20.6124 151.35 20.1727C151.196 19.7331 151.119 19.2205 151.119 18.6349C151.135 18.1953 151.152 17.7115 151.175 17.1835C151.196 16.6556 151.227 16.1219 151.263 15.5786C151.3 15.0372 151.348 14.5015 151.405 13.9736C151.463 13.4456 151.538 12.956 151.624 12.501H149.668V10.9844C149.902 10.896 150.169 10.8231 150.47 10.7655C150.77 10.7079 151.06 10.6637 151.338 10.633V7.99515L153.513 7.7091V10.633H157.075V12.501H153.558C153.529 12.9119 153.494 13.3362 153.46 13.7758C153.423 14.2155 153.394 14.6743 153.371 15.1504C153.35 15.6265 153.335 16.118 153.327 16.623C153.32 17.1279 153.316 17.6385 153.316 18.1511C153.3 18.9133 153.444 19.4451 153.744 19.7446C154.043 20.0441 154.471 20.1958 155.03 20.1958C155.191 20.1958 155.37 20.1919 155.568 20.1843C155.765 20.1766 155.975 20.1631 156.194 20.1401C156.414 20.1171 156.614 20.0921 156.798 20.0633C156.981 20.0345 157.132 19.998 157.249 19.9539V21.7566C157.104 21.8296 156.915 21.8929 156.689 21.9428C156.462 21.9947 156.22 22.035 155.963 22.0638C155.706 22.0926 155.46 22.1156 155.226 22.1291C154.992 22.1444 154.765 22.1502 154.544 22.1502C153.99 22.1483 153.496 22.0753 153.064 21.9294Z" fill="white"/>
<path id="Vector_10" d="M159.757 8.57708C159.508 8.33518 159.383 8.03184 159.383 7.66515C159.383 7.29846 159.508 6.99129 159.757 6.7417C160.007 6.49212 160.329 6.36733 160.725 6.36733C161.12 6.36733 161.45 6.49212 161.714 6.7417C161.977 6.99129 162.109 7.29846 162.109 7.66515C162.109 8.03184 161.98 8.33518 161.725 8.57708C161.468 8.81898 161.136 8.93993 160.725 8.93993C160.327 8.93993 160.005 8.81898 159.757 8.57708ZM159.669 10.6313H161.823V22.0602H159.669V10.6313Z" fill="white"/>
<path id="Vector_11" d="M168.264 21.8091C167.546 21.523 166.926 21.1275 166.407 20.6226C165.887 20.1177 165.484 19.5053 165.198 18.7872C164.912 18.0692 164.77 17.2936 164.77 16.4585V16.2396C164.77 15.3891 164.912 14.6097 165.198 13.8993C165.484 13.189 165.887 12.5804 166.407 12.0755C166.927 11.5705 167.546 11.175 168.264 10.889C168.982 10.6029 169.773 10.4609 170.637 10.4609H170.769C171.618 10.4609 172.407 10.6029 173.132 10.889C173.858 11.175 174.48 11.5705 175 12.0755C175.521 12.5804 175.928 13.189 176.22 13.8993C176.513 14.6097 176.659 15.391 176.659 16.2396V16.4585C176.659 17.2936 176.513 18.0711 176.22 18.7872C175.926 19.5053 175.519 20.1177 175 20.6226C174.48 21.1275 173.858 21.523 173.132 21.8091C172.407 22.0951 171.62 22.2372 170.769 22.2372H170.637C169.773 22.2372 168.982 22.0951 168.264 21.8091ZM170.725 20.3462C171.266 20.3462 171.762 20.2502 172.209 20.0601C172.656 19.87 173.04 19.5993 173.363 19.2461C173.685 18.8948 173.939 18.4801 174.121 18.0039C174.303 17.5278 174.396 17.0037 174.396 16.4316V16.255C174.396 15.6694 174.303 15.1414 174.121 14.673C173.937 14.2046 173.685 13.7937 173.363 13.4424C173.04 13.0911 172.656 12.8204 172.209 12.6284C171.762 12.4383 171.268 12.3423 170.725 12.3423H170.66C170.132 12.3423 169.644 12.4383 169.199 12.6284C168.751 12.8184 168.371 13.0891 168.056 13.4424C167.741 13.7937 167.496 14.2046 167.321 14.673C167.144 15.1414 167.058 15.6694 167.058 16.255V16.4316C167.058 17.0037 167.142 17.5278 167.311 18.0039C167.48 18.4801 167.726 18.8948 168.047 19.2461C168.369 19.5974 168.749 19.87 169.189 20.0601C169.629 20.2502 170.12 20.3462 170.662 20.3462H170.725Z" fill="white"/>
<path id="Vector_12" d="M179.582 10.631H181.296C181.369 10.8499 181.435 11.1225 181.494 11.445C181.552 11.7676 181.596 12.0536 181.627 12.3013C182.124 11.7004 182.736 11.2396 183.462 10.9171C184.188 10.5945 184.954 10.4333 185.758 10.4333H185.846C187.223 10.4333 188.26 10.8076 188.957 11.5545C189.652 12.3013 190.001 13.3706 190.001 14.7625V22.0598H187.826V15.2022C187.826 14.2941 187.62 13.6048 187.21 13.1364C186.799 12.668 186.14 12.4337 185.232 12.4337H185.144C184.647 12.4337 184.188 12.5105 183.771 12.6641C183.353 12.8177 182.994 13.0385 182.694 13.3226C182.393 13.6087 182.162 13.9562 182.001 14.367C181.84 14.7779 181.759 15.2463 181.759 15.7743V22.0598H179.584V10.631H179.582Z" fill="white"/>
</g>
</g>
</svg>
