<svg width="131" height="131" viewBox="0 0 131 131" fill="none" xmlns="http://www.w3.org/2000/svg">
<path d="M0.0446493 7.56692C-0.029989 3.28053 3.45487 -0.239723 7.73245 0.0127907C27.2982 1.16779 42.1886 7.553 51.7351 19.9701C52.5562 21.0381 52.3477 22.5541 51.316 23.4201L14.8003 54.075C13.5837 55.0963 11.7396 54.7995 10.9401 53.4267C2.71505 39.3024 0.389949 27.3971 0.0446493 7.56692Z" fill="#FF8787"/>
<path d="M130.478 7.64664C130.553 3.36024 127.068 -0.16001 122.791 0.0925034C103.225 1.2475 88.3344 7.63271 78.7878 20.0498C77.9668 21.1178 78.1752 22.6338 79.2069 23.4999L115.723 54.1547C116.939 55.176 118.783 54.8792 119.583 53.5064C127.808 39.3821 130.133 27.4768 130.478 7.64664Z" fill="#FF8787"/>
<path d="M130.418 69.1665C130.418 33.7965 98.5717 5.1235 65.209 5.1235C31.8463 5.1235 0 33.7965 0 69.1665C0 150.79 130.418 150.79 130.418 69.1665Z" fill="#FFB6B6"/>
<path d="M96.5093 80.0561C96.5093 66.0554 81.2231 54.7057 65.209 54.7057C49.1949 54.7057 33.9087 66.0554 33.9087 80.0561C33.9087 112.365 96.5093 112.365 96.5093 80.0561Z" fill="#FF8787"/>
<path d="M93.901 44.2674C93.901 39.9437 90.3976 36.4386 86.0759 36.4386C81.7542 36.4386 78.2508 39.9437 78.2508 44.2674C78.2508 48.5911 81.7542 52.0961 86.0759 52.0961C90.3976 52.0961 93.901 48.5911 93.901 44.2674Z" fill="black"/>
<path d="M52.1672 44.2674C52.1672 39.9437 48.6638 36.4386 44.3422 36.4386C40.0205 36.4386 36.5171 39.9437 36.5171 44.2674C36.5171 48.5911 40.0205 52.0961 44.3422 52.0961C48.6638 52.0961 52.1672 48.5911 52.1672 44.2674Z" fill="black"/>
<path fill-rule="evenodd" clip-rule="evenodd" d="M56.0798 87.978C53.1987 87.978 50.863 85.6413 50.863 82.7588V77.5396C50.863 74.6571 53.1987 72.3204 56.0798 72.3204C58.9609 72.3204 61.2965 74.6571 61.2965 77.5396V82.7588C61.2965 85.6413 58.9609 87.978 56.0798 87.978Z" fill="#CE3B3B"/>
<path fill-rule="evenodd" clip-rule="evenodd" d="M74.3383 87.978C71.4572 87.978 69.1216 85.6413 69.1216 82.7588V77.5396C69.1216 74.6571 71.4572 72.3204 74.3383 72.3204C77.2194 72.3204 79.555 74.6571 79.555 77.5396V82.7588C79.555 85.6413 77.2194 87.978 74.3383 87.978Z" fill="#CE3B3B"/>
</svg>
