<?xml version="1.0" encoding="UTF-8"?>
<svg xmlns="http://www.w3.org/2000/svg" version="1.1" viewBox="0 0 1080 1080">
  <g>
    <g id="speaking" data-name="speaking">
      <g>
        <path
          d="M473.7,520.9c15.5,66.1,13.8,87.8-52.2,112.7,6.1,5.4,12.5,10.3,18,16,21.3,22.1,23.1,49.6,4.4,73.8-5.7,7.5-7.9,14.9-8.1,24.2-.6,43.5-30.9,73.9-77.3,76-25,1.1-50.1-.4-75.2-1.3-37-1.4-37-1.6-52.4,32-7.1,15.4-14.3,30.7-21.1,46.2-3.9,8.8-10.3,12.7-19.9,12.6-34.6-.2-69.3,0-103.9-.1-14.5,0-20.5-6.2-20.5-20.8,0-235,0-470,0-705,0-14.6,6.1-20.7,20.6-20.7,121.9,0,243.9,0,365.8,0,17,0,23.5,8.5,19.9,25.4-3.5,16.2-7.4,32.4-10,48.7-4.1,25,1.5,48.4,14.4,70.1,21.2,35.8,42.8,71.5,63.9,107.4,5.2,8.8,10,17.9,13.7,27.4,11.4,29.5-1.2,56-31.3,65.5-11.7,3.7-24.1,5.1-36.2,7.4-4.1.8-8.2,1.5-12.4,2.2Z" />
        <path
          d="M637.1,550.6c-15.9-25.6-26-52.1-29.7-80.9-15.3-120.3,80.4-239.5,210.6-232.8,103.8,5.3,180.2,73.1,194.4,176.1,15,109.1-51.1,214.3-175.8,230.6-17.4,2.3-35.2,2.2-52.9,2.3-56.9.3-113.8.1-170.7,0-19.6,0-31.7-7.6-36.5-22.6-4.9-15.3.2-27.7,16.4-39.8,14.4-10.8,28.8-21.6,44.2-33.1ZM810.2,484.8c11.3,0,22.6.3,33.9-.1,5.8-.2,8.8,1.6,11.2,7,5.6,13,11.8,25.6,17.9,38.4,5.6,11.8,15,16,24.5,11.3,9-4.4,11.5-14,6.1-25.5-25.3-54.4-50.7-108.7-76-163-3.4-7.2-7.9-12.5-16.6-12.7-9.1-.2-14,5.3-17.5,12.8-25.4,54.3-50.8,108.6-76.1,163-5.2,11.1-2.2,21.1,6.9,25.3,9.4,4.3,18.4.2,23.9-11.1,6.3-13,12.1-26.3,18.8-39.1,1.5-2.9,6-5.7,9.2-5.9,11.3-.7,22.6-.3,33.9-.3Z" />
        <path d="M810.8,396.9c8.7,18.5,16.5,35.4,24.9,53.3h-49.8c8.3-17.8,16.3-34.8,24.9-53.3Z" />
      </g>
    </g>
  </g>
</svg>