<?xml version="1.0" encoding="UTF-8"?>
<svg xmlns="http://www.w3.org/2000/svg" version="1.1" viewBox="0 0 1080 1080">
  <g>
    <g id="speaking" data-name="speaking">
      <g>
        <path
          d="M447.9,999.2c-104.8,0-209.5,0-314.3,0-36.1,0-53.6-17.7-52.8-53.6,3.6-178.5,135.4-328.8,311.8-355.6,193.6-29.4,378.3,99.8,415.4,291.5,4.3,22.1,6,44.8,6.9,67.3,1.4,31.3-18,50.3-49.6,50.4-105.8,0-211.7,0-317.5,0Z" />
        <path
          d="M218.5,310.3c0-127.3,102.9-229.8,230.1-229.3,126.8.5,229,103,228.9,229.6,0,126.9-103.4,229.9-230.3,229.5-126.6-.4-228.8-103.1-228.7-229.8Z" />
        <path
          d="M999.2,310.3c-2,90-39.9,162-107.4,219.2-19.6,16.6-47.1,13.6-63.7-5.4-16.5-19-14.9-47.3,4.9-64.6,28.6-25,51.8-53.9,63.9-90.2,23.4-70.3,6.3-132-41.8-186.4-7.1-8-15.5-14.9-23.2-22.4-18.4-17.7-19.9-45.1-3.4-64,16.3-18.6,44.5-21.3,63.8-4.8,67.3,57.4,105.2,129.4,107,218.6Z" />
        <path
          d="M867.2,310.9c-1.7,57.2-25.5,103.6-69,140-19,15.9-46.8,13.2-63-5-16.3-18.3-15.5-45.4,2-63.2,2-2,4.2-3.9,6.3-5.9,42.1-39.5,41.9-93.4.2-133.1-7.7-7.4-14.8-17-18.2-26.9-6.4-18.7,2.3-38.8,18.7-49.6,16.8-11.1,38.1-10.6,54,2.8,43.7,36.7,67.6,83.4,69,141Z" />
      </g>
    </g>
  </g>
</svg>