<svg width="23" height="24" viewBox="0 0 23 24" fill="none" xmlns="http://www.w3.org/2000/svg">
<path fill-rule="evenodd" clip-rule="evenodd" d="M0.15625 11.6929C0.15625 7.16045 0.15625 4.89422 1.2363 3.26192C1.71859 2.53301 2.34283 1.90878 3.07173 1.42648C4.70403 0.346436 6.97026 0.346436 11.5027 0.346436C16.0352 0.346436 18.3014 0.346436 19.9337 1.42648C20.6626 1.90878 21.2869 2.53301 21.7692 3.26192C22.8492 4.89422 22.8492 7.16044 22.8492 11.6929V11.6929V11.6929C22.8492 16.2254 22.8492 18.4916 21.7692 20.1239C21.2869 20.8528 20.6626 21.477 19.9337 21.9593C18.3014 23.0394 16.0352 23.0394 11.5028 23.0394H11.5027H11.5027C6.97026 23.0394 4.70403 23.0394 3.07173 21.9593C2.34283 21.477 1.71859 20.8528 1.2363 20.1239C0.15625 18.4916 0.15625 16.2254 0.15625 11.6929ZM17.3775 11.6925C17.3775 14.9367 14.7475 17.5667 11.5033 17.5667C8.25902 17.5667 5.62905 14.9367 5.62905 11.6925C5.62905 8.44828 8.25902 5.81831 11.5033 5.81831C14.7475 5.81831 17.3775 8.44828 17.3775 11.6925ZM11.5033 15.5793C13.6499 15.5793 15.3901 13.8391 15.3901 11.6925C15.3901 9.54589 13.6499 7.80571 11.5033 7.80571C9.35663 7.80571 7.61645 9.54589 7.61645 11.6925C7.61645 13.8391 9.35663 15.5793 11.5033 15.5793ZM17.6107 6.90347C18.373 6.90347 18.991 6.28551 18.991 5.52321C18.991 4.76091 18.373 4.14294 17.6107 4.14294C16.8484 4.14294 16.2305 4.76091 16.2305 5.52321C16.2305 6.28551 16.8484 6.90347 17.6107 6.90347Z" fill="white"/>
</svg>
