<svg width="21" height="20" viewBox="0 0 21 20" fill="none" xmlns="http://www.w3.org/2000/svg">
<path d="M0.746094 3.11922C0.746094 2.49548 0.965144 1.9809 1.40323 1.57549C1.84131 1.17005 2.41083 0.967346 3.11177 0.967346C3.8002 0.967346 4.35718 1.16693 4.78276 1.56613C5.22084 1.97779 5.43989 2.51419 5.43989 3.17536C5.43989 3.77414 5.22711 4.27312 4.80154 4.67232C4.36345 5.08398 3.78768 5.28981 3.07422 5.28981H3.05544C2.36701 5.28981 1.81003 5.08398 1.38445 4.67232C0.958873 4.26065 0.746094 3.74295 0.746094 3.11922ZM0.990171 19.4922V6.9926H5.15827V19.4922H0.990171ZM7.46761 19.4922H11.6357V12.5126C11.6357 12.076 11.6858 11.7392 11.7859 11.5022C11.9611 11.078 12.2271 10.7194 12.5839 10.4262C12.9406 10.1331 13.3881 9.98652 13.9263 9.98652C15.3282 9.98652 16.0291 10.9283 16.0291 12.812V19.4922H20.1972V12.3255C20.1972 10.4793 19.7591 9.07899 18.8829 8.12468C18.0068 7.17036 16.849 6.69321 15.4095 6.69321C13.7949 6.69321 12.5369 7.38555 11.6357 8.77024V8.80766H11.6169L11.6357 8.77024V6.9926H7.46761C7.49264 7.39178 7.50516 8.63301 7.50516 10.7163C7.50516 12.7995 7.49264 15.7248 7.46761 19.4922Z" fill="white"/>
</svg>
