<svg width="23" height="26" viewBox="0 0 23 26" fill="none" xmlns="http://www.w3.org/2000/svg">
<path d="M22.1747 6.4609C20.7491 6.4609 19.4309 5.98733 18.3764 5.19155C17.1656 4.27859 16.2917 2.93601 15.9841 1.39326C15.906 1.01246 15.867 0.617007 15.8621 0.211792H11.7855V11.3479L11.7806 17.4457C11.7806 19.0763 10.7163 20.4579 9.24683 20.9461C8.8172 21.0877 8.35828 21.1561 7.87984 21.1268C7.26469 21.0926 6.69348 20.9071 6.19062 20.6093C5.12632 19.9746 4.40865 18.8224 4.38912 17.4994C4.35983 15.4391 6.02463 13.7548 8.08488 13.7548C8.4901 13.7548 8.88067 13.8231 9.24683 13.9403V10.8987V9.81003C8.86114 9.75144 8.47057 9.72215 8.07024 9.72215C5.8147 9.72215 3.70563 10.6595 2.19706 12.3487C1.05952 13.623 0.376027 15.2536 0.268621 16.9623C0.131922 19.2032 0.952117 21.3367 2.54369 22.9087C2.77803 23.1382 3.02213 23.353 3.28089 23.5532C4.64788 24.6028 6.31268 25.174 8.07024 25.174C8.46569 25.174 8.86114 25.1447 9.24683 25.0862C10.8872 24.8421 12.4007 24.0902 13.5968 22.9087C15.0663 21.4587 15.8767 19.5303 15.8865 17.4798L15.867 8.3698C16.57 8.91172 17.3316 9.35599 18.1567 9.70262C19.4358 10.2445 20.793 10.5131 22.1844 10.5131V7.55449V6.45602C22.1893 6.4609 22.1747 6.4609 22.1747 6.4609Z" fill="white"/>
</svg>
