<svg width="26" height="19" viewBox="0 0 26 19" fill="none" xmlns="http://www.w3.org/2000/svg">
<path d="M13.6084 18.4929L8.48708 18.3972C6.82892 18.3638 5.16664 18.4304 3.54099 18.0849C1.06801 17.5686 0.892812 15.0372 0.709489 12.9138C0.456889 9.92866 0.554678 6.88929 1.03137 3.92903C1.30047 2.26801 2.35952 1.27687 3.9973 1.16901C9.52599 0.777592 15.0915 0.823979 20.6079 1.00659C21.1905 1.02333 21.7771 1.11483 22.3516 1.21898C25.1873 1.72695 25.2565 4.59558 25.4403 7.01044C25.6236 9.45021 25.5462 11.9025 25.1959 14.3257C24.9147 16.332 24.3769 18.0145 22.1071 18.1769C19.2632 18.3893 16.4846 18.5603 13.6328 18.5058C13.6329 18.4929 13.6165 18.4929 13.6084 18.4929ZM10.5975 13.4135C12.7406 12.156 14.8429 10.9195 16.9737 9.67052C14.8266 8.41306 12.7284 7.17656 10.5975 5.92754V13.4135Z" fill="white"/>
</svg>
