<svg xmlns="http://www.w3.org/2000/svg" width="30" height="30" viewBox="0 0 30 30" fill="none">
  <path d="M22.925 17.6625L20.2 15.475C19.8125 15.175 19.325 15 18.825 15H15.9375V11.25H21.525C22.7375 11.25 23.7125 10.275 23.7125 9.0625V4.6875C23.7125 3.475 22.7375 2.5 21.525 2.5H11.2C10.7125 2.5 10.225 2.675 9.8375 2.975L7.1 5.1625C6.0125 6.0375 6.0125 7.7125 7.1 8.5875L9.8375 10.775C10.225 11.075 10.7125 11.25 11.2 11.25H14.0625V15H8.5C7.2875 15 6.3125 15.975 6.3125 17.1875V21.5625C6.3125 22.775 7.2875 23.75 8.5 23.75H14.0625V26.5625H11.25C10.7375 26.5625 10.3125 26.9875 10.3125 27.5C10.3125 28.0125 10.7375 28.4375 11.25 28.4375H18.75C19.2625 28.4375 19.6875 28.0125 19.6875 27.5C19.6875 26.9875 19.2625 26.5625 18.75 26.5625H15.9375V23.75H18.825C19.325 23.75 19.8125 23.575 20.2 23.275L22.925 21.0875C24.025 20.2125 24.025 18.5375 22.925 17.6625Z" fill="currentColor"/>
</svg>